<mxfile host="app.diagrams.net" modified="2024-07-01T05:15:08.757Z" agent="Mozilla/5.0 (X11; Linux x86_64) AppleWebKit/537.36 (KHTML, like Gecko) Chrome/126.0.0.0 Safari/537.36" etag="ma1W_NiS1neLCFM0hCXe" version="24.6.2" type="device">
  <diagram id="R2lEEEUBdFMjLlhIrx00" name="Page-1">
    <mxGraphModel dx="1082" dy="521" grid="1" gridSize="10" guides="1" tooltips="1" connect="1" arrows="1" fold="1" page="1" pageScale="1" pageWidth="850" pageHeight="1100" math="0" shadow="0" extFonts="Permanent Marker^https://fonts.googleapis.com/css?family=Permanent+Marker">
      <root>
        <mxCell id="0" />
        <mxCell id="1" parent="0" />
        <mxCell id="Us2jV88vOqGfqOoBYz8w-1" value="USER" style="shape=table;startSize=25;container=1;collapsible=0;childLayout=tableLayout;fixedRows=1;rowLines=1;fontStyle=1;align=center;resizeLast=1;" vertex="1" parent="1">
          <mxGeometry x="280" y="430" width="122" height="109" as="geometry" />
        </mxCell>
        <mxCell id="Us2jV88vOqGfqOoBYz8w-2" style="shape=tableRow;horizontal=0;startSize=0;swimlaneHead=0;swimlaneBody=0;fillColor=none;collapsible=0;dropTarget=0;points=[[0,0.5],[1,0.5]];portConstraint=eastwest;top=0;left=0;right=0;bottom=0;" vertex="1" parent="Us2jV88vOqGfqOoBYz8w-1">
          <mxGeometry y="25" width="122" height="21" as="geometry" />
        </mxCell>
        <mxCell id="Us2jV88vOqGfqOoBYz8w-3" value="int" style="shape=partialRectangle;connectable=0;fillColor=none;top=0;left=0;bottom=0;right=0;align=left;spacingLeft=2;overflow=hidden;fontSize=11;" vertex="1" parent="Us2jV88vOqGfqOoBYz8w-2">
          <mxGeometry width="42" height="21" as="geometry">
            <mxRectangle width="42" height="21" as="alternateBounds" />
          </mxGeometry>
        </mxCell>
        <mxCell id="Us2jV88vOqGfqOoBYz8w-4" value="user_id" style="shape=partialRectangle;connectable=0;fillColor=none;top=0;left=0;bottom=0;right=0;align=left;spacingLeft=2;overflow=hidden;fontSize=11;" vertex="1" parent="Us2jV88vOqGfqOoBYz8w-2">
          <mxGeometry x="42" width="80" height="21" as="geometry">
            <mxRectangle width="80" height="21" as="alternateBounds" />
          </mxGeometry>
        </mxCell>
        <mxCell id="Us2jV88vOqGfqOoBYz8w-5" style="shape=tableRow;horizontal=0;startSize=0;swimlaneHead=0;swimlaneBody=0;fillColor=none;collapsible=0;dropTarget=0;points=[[0,0.5],[1,0.5]];portConstraint=eastwest;top=0;left=0;right=0;bottom=0;" vertex="1" parent="Us2jV88vOqGfqOoBYz8w-1">
          <mxGeometry y="46" width="122" height="21" as="geometry" />
        </mxCell>
        <mxCell id="Us2jV88vOqGfqOoBYz8w-6" value="varchar" style="shape=partialRectangle;connectable=0;fillColor=none;top=0;left=0;bottom=0;right=0;align=left;spacingLeft=2;overflow=hidden;fontSize=11;" vertex="1" parent="Us2jV88vOqGfqOoBYz8w-5">
          <mxGeometry width="42" height="21" as="geometry">
            <mxRectangle width="42" height="21" as="alternateBounds" />
          </mxGeometry>
        </mxCell>
        <mxCell id="Us2jV88vOqGfqOoBYz8w-7" value="name" style="shape=partialRectangle;connectable=0;fillColor=none;top=0;left=0;bottom=0;right=0;align=left;spacingLeft=2;overflow=hidden;fontSize=11;" vertex="1" parent="Us2jV88vOqGfqOoBYz8w-5">
          <mxGeometry x="42" width="80" height="21" as="geometry">
            <mxRectangle width="80" height="21" as="alternateBounds" />
          </mxGeometry>
        </mxCell>
        <mxCell id="Us2jV88vOqGfqOoBYz8w-8" style="shape=tableRow;horizontal=0;startSize=0;swimlaneHead=0;swimlaneBody=0;fillColor=none;collapsible=0;dropTarget=0;points=[[0,0.5],[1,0.5]];portConstraint=eastwest;top=0;left=0;right=0;bottom=0;" vertex="1" parent="Us2jV88vOqGfqOoBYz8w-1">
          <mxGeometry y="67" width="122" height="21" as="geometry" />
        </mxCell>
        <mxCell id="Us2jV88vOqGfqOoBYz8w-9" value="varchar" style="shape=partialRectangle;connectable=0;fillColor=none;top=0;left=0;bottom=0;right=0;align=left;spacingLeft=2;overflow=hidden;fontSize=11;" vertex="1" parent="Us2jV88vOqGfqOoBYz8w-8">
          <mxGeometry width="42" height="21" as="geometry">
            <mxRectangle width="42" height="21" as="alternateBounds" />
          </mxGeometry>
        </mxCell>
        <mxCell id="Us2jV88vOqGfqOoBYz8w-10" value="email" style="shape=partialRectangle;connectable=0;fillColor=none;top=0;left=0;bottom=0;right=0;align=left;spacingLeft=2;overflow=hidden;fontSize=11;" vertex="1" parent="Us2jV88vOqGfqOoBYz8w-8">
          <mxGeometry x="42" width="80" height="21" as="geometry">
            <mxRectangle width="80" height="21" as="alternateBounds" />
          </mxGeometry>
        </mxCell>
        <mxCell id="Us2jV88vOqGfqOoBYz8w-11" style="shape=tableRow;horizontal=0;startSize=0;swimlaneHead=0;swimlaneBody=0;fillColor=none;collapsible=0;dropTarget=0;points=[[0,0.5],[1,0.5]];portConstraint=eastwest;top=0;left=0;right=0;bottom=0;" vertex="1" parent="Us2jV88vOqGfqOoBYz8w-1">
          <mxGeometry y="88" width="122" height="21" as="geometry" />
        </mxCell>
        <mxCell id="Us2jV88vOqGfqOoBYz8w-12" value="varchar" style="shape=partialRectangle;connectable=0;fillColor=none;top=0;left=0;bottom=0;right=0;align=left;spacingLeft=2;overflow=hidden;fontSize=11;" vertex="1" parent="Us2jV88vOqGfqOoBYz8w-11">
          <mxGeometry width="42" height="21" as="geometry">
            <mxRectangle width="42" height="21" as="alternateBounds" />
          </mxGeometry>
        </mxCell>
        <mxCell id="Us2jV88vOqGfqOoBYz8w-13" value="password" style="shape=partialRectangle;connectable=0;fillColor=none;top=0;left=0;bottom=0;right=0;align=left;spacingLeft=2;overflow=hidden;fontSize=11;" vertex="1" parent="Us2jV88vOqGfqOoBYz8w-11">
          <mxGeometry x="42" width="80" height="21" as="geometry">
            <mxRectangle width="80" height="21" as="alternateBounds" />
          </mxGeometry>
        </mxCell>
        <mxCell id="Us2jV88vOqGfqOoBYz8w-14" value="PROJECT" style="shape=table;startSize=25;container=1;collapsible=0;childLayout=tableLayout;fixedRows=1;rowLines=1;fontStyle=1;align=center;resizeLast=1;" vertex="1" parent="1">
          <mxGeometry x="120" y="638" width="128" height="130" as="geometry" />
        </mxCell>
        <mxCell id="Us2jV88vOqGfqOoBYz8w-15" style="shape=tableRow;horizontal=0;startSize=0;swimlaneHead=0;swimlaneBody=0;fillColor=none;collapsible=0;dropTarget=0;points=[[0,0.5],[1,0.5]];portConstraint=eastwest;top=0;left=0;right=0;bottom=0;" vertex="1" parent="Us2jV88vOqGfqOoBYz8w-14">
          <mxGeometry y="25" width="128" height="21" as="geometry" />
        </mxCell>
        <mxCell id="Us2jV88vOqGfqOoBYz8w-16" value="int" style="shape=partialRectangle;connectable=0;fillColor=none;top=0;left=0;bottom=0;right=0;align=left;spacingLeft=2;overflow=hidden;fontSize=11;" vertex="1" parent="Us2jV88vOqGfqOoBYz8w-15">
          <mxGeometry width="42" height="21" as="geometry">
            <mxRectangle width="42" height="21" as="alternateBounds" />
          </mxGeometry>
        </mxCell>
        <mxCell id="Us2jV88vOqGfqOoBYz8w-17" value="project_id" style="shape=partialRectangle;connectable=0;fillColor=none;top=0;left=0;bottom=0;right=0;align=left;spacingLeft=2;overflow=hidden;fontSize=11;" vertex="1" parent="Us2jV88vOqGfqOoBYz8w-15">
          <mxGeometry x="42" width="86" height="21" as="geometry">
            <mxRectangle width="86" height="21" as="alternateBounds" />
          </mxGeometry>
        </mxCell>
        <mxCell id="Us2jV88vOqGfqOoBYz8w-18" style="shape=tableRow;horizontal=0;startSize=0;swimlaneHead=0;swimlaneBody=0;fillColor=none;collapsible=0;dropTarget=0;points=[[0,0.5],[1,0.5]];portConstraint=eastwest;top=0;left=0;right=0;bottom=0;" vertex="1" parent="Us2jV88vOqGfqOoBYz8w-14">
          <mxGeometry y="46" width="128" height="21" as="geometry" />
        </mxCell>
        <mxCell id="Us2jV88vOqGfqOoBYz8w-19" value="varchar" style="shape=partialRectangle;connectable=0;fillColor=none;top=0;left=0;bottom=0;right=0;align=left;spacingLeft=2;overflow=hidden;fontSize=11;" vertex="1" parent="Us2jV88vOqGfqOoBYz8w-18">
          <mxGeometry width="42" height="21" as="geometry">
            <mxRectangle width="42" height="21" as="alternateBounds" />
          </mxGeometry>
        </mxCell>
        <mxCell id="Us2jV88vOqGfqOoBYz8w-20" value="title" style="shape=partialRectangle;connectable=0;fillColor=none;top=0;left=0;bottom=0;right=0;align=left;spacingLeft=2;overflow=hidden;fontSize=11;" vertex="1" parent="Us2jV88vOqGfqOoBYz8w-18">
          <mxGeometry x="42" width="86" height="21" as="geometry">
            <mxRectangle width="86" height="21" as="alternateBounds" />
          </mxGeometry>
        </mxCell>
        <mxCell id="Us2jV88vOqGfqOoBYz8w-21" style="shape=tableRow;horizontal=0;startSize=0;swimlaneHead=0;swimlaneBody=0;fillColor=none;collapsible=0;dropTarget=0;points=[[0,0.5],[1,0.5]];portConstraint=eastwest;top=0;left=0;right=0;bottom=0;" vertex="1" parent="Us2jV88vOqGfqOoBYz8w-14">
          <mxGeometry y="67" width="128" height="21" as="geometry" />
        </mxCell>
        <mxCell id="Us2jV88vOqGfqOoBYz8w-22" value="varchar" style="shape=partialRectangle;connectable=0;fillColor=none;top=0;left=0;bottom=0;right=0;align=left;spacingLeft=2;overflow=hidden;fontSize=11;" vertex="1" parent="Us2jV88vOqGfqOoBYz8w-21">
          <mxGeometry width="42" height="21" as="geometry">
            <mxRectangle width="42" height="21" as="alternateBounds" />
          </mxGeometry>
        </mxCell>
        <mxCell id="Us2jV88vOqGfqOoBYz8w-23" value="description" style="shape=partialRectangle;connectable=0;fillColor=none;top=0;left=0;bottom=0;right=0;align=left;spacingLeft=2;overflow=hidden;fontSize=11;" vertex="1" parent="Us2jV88vOqGfqOoBYz8w-21">
          <mxGeometry x="42" width="86" height="21" as="geometry">
            <mxRectangle width="86" height="21" as="alternateBounds" />
          </mxGeometry>
        </mxCell>
        <mxCell id="Us2jV88vOqGfqOoBYz8w-24" style="shape=tableRow;horizontal=0;startSize=0;swimlaneHead=0;swimlaneBody=0;fillColor=none;collapsible=0;dropTarget=0;points=[[0,0.5],[1,0.5]];portConstraint=eastwest;top=0;left=0;right=0;bottom=0;" vertex="1" parent="Us2jV88vOqGfqOoBYz8w-14">
          <mxGeometry y="88" width="128" height="21" as="geometry" />
        </mxCell>
        <mxCell id="Us2jV88vOqGfqOoBYz8w-25" value="varchar" style="shape=partialRectangle;connectable=0;fillColor=none;top=0;left=0;bottom=0;right=0;align=left;spacingLeft=2;overflow=hidden;fontSize=11;" vertex="1" parent="Us2jV88vOqGfqOoBYz8w-24">
          <mxGeometry width="42" height="21" as="geometry">
            <mxRectangle width="42" height="21" as="alternateBounds" />
          </mxGeometry>
        </mxCell>
        <mxCell id="Us2jV88vOqGfqOoBYz8w-26" value="url" style="shape=partialRectangle;connectable=0;fillColor=none;top=0;left=0;bottom=0;right=0;align=left;spacingLeft=2;overflow=hidden;fontSize=11;" vertex="1" parent="Us2jV88vOqGfqOoBYz8w-24">
          <mxGeometry x="42" width="86" height="21" as="geometry">
            <mxRectangle width="86" height="21" as="alternateBounds" />
          </mxGeometry>
        </mxCell>
        <mxCell id="Us2jV88vOqGfqOoBYz8w-27" style="shape=tableRow;horizontal=0;startSize=0;swimlaneHead=0;swimlaneBody=0;fillColor=none;collapsible=0;dropTarget=0;points=[[0,0.5],[1,0.5]];portConstraint=eastwest;top=0;left=0;right=0;bottom=0;" vertex="1" parent="Us2jV88vOqGfqOoBYz8w-14">
          <mxGeometry y="109" width="128" height="21" as="geometry" />
        </mxCell>
        <mxCell id="Us2jV88vOqGfqOoBYz8w-28" value="int" style="shape=partialRectangle;connectable=0;fillColor=none;top=0;left=0;bottom=0;right=0;align=left;spacingLeft=2;overflow=hidden;fontSize=11;" vertex="1" parent="Us2jV88vOqGfqOoBYz8w-27">
          <mxGeometry width="42" height="21" as="geometry">
            <mxRectangle width="42" height="21" as="alternateBounds" />
          </mxGeometry>
        </mxCell>
        <mxCell id="Us2jV88vOqGfqOoBYz8w-29" value="user_id" style="shape=partialRectangle;connectable=0;fillColor=none;top=0;left=0;bottom=0;right=0;align=left;spacingLeft=2;overflow=hidden;fontSize=11;" vertex="1" parent="Us2jV88vOqGfqOoBYz8w-27">
          <mxGeometry x="42" width="86" height="21" as="geometry">
            <mxRectangle width="86" height="21" as="alternateBounds" />
          </mxGeometry>
        </mxCell>
        <mxCell id="Us2jV88vOqGfqOoBYz8w-30" value="SKILL" style="shape=table;startSize=25;container=1;collapsible=0;childLayout=tableLayout;fixedRows=1;rowLines=1;fontStyle=1;align=center;resizeLast=1;" vertex="1" parent="1">
          <mxGeometry x="559" y="451" width="109" height="67" as="geometry" />
        </mxCell>
        <mxCell id="Us2jV88vOqGfqOoBYz8w-31" style="shape=tableRow;horizontal=0;startSize=0;swimlaneHead=0;swimlaneBody=0;fillColor=none;collapsible=0;dropTarget=0;points=[[0,0.5],[1,0.5]];portConstraint=eastwest;top=0;left=0;right=0;bottom=0;" vertex="1" parent="Us2jV88vOqGfqOoBYz8w-30">
          <mxGeometry y="25" width="109" height="21" as="geometry" />
        </mxCell>
        <mxCell id="Us2jV88vOqGfqOoBYz8w-32" value="int" style="shape=partialRectangle;connectable=0;fillColor=none;top=0;left=0;bottom=0;right=0;align=left;spacingLeft=2;overflow=hidden;fontSize=11;" vertex="1" parent="Us2jV88vOqGfqOoBYz8w-31">
          <mxGeometry width="42" height="21" as="geometry">
            <mxRectangle width="42" height="21" as="alternateBounds" />
          </mxGeometry>
        </mxCell>
        <mxCell id="Us2jV88vOqGfqOoBYz8w-33" value="skill_id" style="shape=partialRectangle;connectable=0;fillColor=none;top=0;left=0;bottom=0;right=0;align=left;spacingLeft=2;overflow=hidden;fontSize=11;" vertex="1" parent="Us2jV88vOqGfqOoBYz8w-31">
          <mxGeometry x="42" width="67" height="21" as="geometry">
            <mxRectangle width="67" height="21" as="alternateBounds" />
          </mxGeometry>
        </mxCell>
        <mxCell id="Us2jV88vOqGfqOoBYz8w-34" style="shape=tableRow;horizontal=0;startSize=0;swimlaneHead=0;swimlaneBody=0;fillColor=none;collapsible=0;dropTarget=0;points=[[0,0.5],[1,0.5]];portConstraint=eastwest;top=0;left=0;right=0;bottom=0;" vertex="1" parent="Us2jV88vOqGfqOoBYz8w-30">
          <mxGeometry y="46" width="109" height="21" as="geometry" />
        </mxCell>
        <mxCell id="Us2jV88vOqGfqOoBYz8w-35" value="varchar" style="shape=partialRectangle;connectable=0;fillColor=none;top=0;left=0;bottom=0;right=0;align=left;spacingLeft=2;overflow=hidden;fontSize=11;" vertex="1" parent="Us2jV88vOqGfqOoBYz8w-34">
          <mxGeometry width="42" height="21" as="geometry">
            <mxRectangle width="42" height="21" as="alternateBounds" />
          </mxGeometry>
        </mxCell>
        <mxCell id="Us2jV88vOqGfqOoBYz8w-36" value="name" style="shape=partialRectangle;connectable=0;fillColor=none;top=0;left=0;bottom=0;right=0;align=left;spacingLeft=2;overflow=hidden;fontSize=11;" vertex="1" parent="Us2jV88vOqGfqOoBYz8w-34">
          <mxGeometry x="42" width="67" height="21" as="geometry">
            <mxRectangle width="67" height="21" as="alternateBounds" />
          </mxGeometry>
        </mxCell>
        <mxCell id="Us2jV88vOqGfqOoBYz8w-37" value="USER_SKILL" style="shape=table;startSize=25;container=1;collapsible=0;childLayout=tableLayout;fixedRows=1;rowLines=1;fontStyle=1;align=center;resizeLast=1;" vertex="1" parent="1">
          <mxGeometry x="398" y="670" width="103" height="67" as="geometry" />
        </mxCell>
        <mxCell id="Us2jV88vOqGfqOoBYz8w-38" style="shape=tableRow;horizontal=0;startSize=0;swimlaneHead=0;swimlaneBody=0;fillColor=none;collapsible=0;dropTarget=0;points=[[0,0.5],[1,0.5]];portConstraint=eastwest;top=0;left=0;right=0;bottom=0;" vertex="1" parent="Us2jV88vOqGfqOoBYz8w-37">
          <mxGeometry y="25" width="103" height="21" as="geometry" />
        </mxCell>
        <mxCell id="Us2jV88vOqGfqOoBYz8w-39" value="int" style="shape=partialRectangle;connectable=0;fillColor=none;top=0;left=0;bottom=0;right=0;align=left;spacingLeft=2;overflow=hidden;fontSize=11;" vertex="1" parent="Us2jV88vOqGfqOoBYz8w-38">
          <mxGeometry width="18" height="21" as="geometry">
            <mxRectangle width="18" height="21" as="alternateBounds" />
          </mxGeometry>
        </mxCell>
        <mxCell id="Us2jV88vOqGfqOoBYz8w-40" value="user_id" style="shape=partialRectangle;connectable=0;fillColor=none;top=0;left=0;bottom=0;right=0;align=left;spacingLeft=2;overflow=hidden;fontSize=11;" vertex="1" parent="Us2jV88vOqGfqOoBYz8w-38">
          <mxGeometry x="18" width="85" height="21" as="geometry">
            <mxRectangle width="85" height="21" as="alternateBounds" />
          </mxGeometry>
        </mxCell>
        <mxCell id="Us2jV88vOqGfqOoBYz8w-41" style="shape=tableRow;horizontal=0;startSize=0;swimlaneHead=0;swimlaneBody=0;fillColor=none;collapsible=0;dropTarget=0;points=[[0,0.5],[1,0.5]];portConstraint=eastwest;top=0;left=0;right=0;bottom=0;" vertex="1" parent="Us2jV88vOqGfqOoBYz8w-37">
          <mxGeometry y="46" width="103" height="21" as="geometry" />
        </mxCell>
        <mxCell id="Us2jV88vOqGfqOoBYz8w-42" value="int" style="shape=partialRectangle;connectable=0;fillColor=none;top=0;left=0;bottom=0;right=0;align=left;spacingLeft=2;overflow=hidden;fontSize=11;" vertex="1" parent="Us2jV88vOqGfqOoBYz8w-41">
          <mxGeometry width="18" height="21" as="geometry">
            <mxRectangle width="18" height="21" as="alternateBounds" />
          </mxGeometry>
        </mxCell>
        <mxCell id="Us2jV88vOqGfqOoBYz8w-43" value="skill_id" style="shape=partialRectangle;connectable=0;fillColor=none;top=0;left=0;bottom=0;right=0;align=left;spacingLeft=2;overflow=hidden;fontSize=11;" vertex="1" parent="Us2jV88vOqGfqOoBYz8w-41">
          <mxGeometry x="18" width="85" height="21" as="geometry">
            <mxRectangle width="85" height="21" as="alternateBounds" />
          </mxGeometry>
        </mxCell>
        <mxCell id="Us2jV88vOqGfqOoBYz8w-44" value="CONTACT" style="shape=table;startSize=25;container=1;collapsible=0;childLayout=tableLayout;fixedRows=1;rowLines=1;fontStyle=1;align=center;resizeLast=1;" vertex="1" parent="1">
          <mxGeometry x="601" y="649" width="125" height="109" as="geometry" />
        </mxCell>
        <mxCell id="Us2jV88vOqGfqOoBYz8w-45" style="shape=tableRow;horizontal=0;startSize=0;swimlaneHead=0;swimlaneBody=0;fillColor=none;collapsible=0;dropTarget=0;points=[[0,0.5],[1,0.5]];portConstraint=eastwest;top=0;left=0;right=0;bottom=0;" vertex="1" parent="Us2jV88vOqGfqOoBYz8w-44">
          <mxGeometry y="25" width="125" height="21" as="geometry" />
        </mxCell>
        <mxCell id="Us2jV88vOqGfqOoBYz8w-46" value="int" style="shape=partialRectangle;connectable=0;fillColor=none;top=0;left=0;bottom=0;right=0;align=left;spacingLeft=2;overflow=hidden;fontSize=11;" vertex="1" parent="Us2jV88vOqGfqOoBYz8w-45">
          <mxGeometry width="42" height="21" as="geometry">
            <mxRectangle width="42" height="21" as="alternateBounds" />
          </mxGeometry>
        </mxCell>
        <mxCell id="Us2jV88vOqGfqOoBYz8w-47" value="contact_id" style="shape=partialRectangle;connectable=0;fillColor=none;top=0;left=0;bottom=0;right=0;align=left;spacingLeft=2;overflow=hidden;fontSize=11;" vertex="1" parent="Us2jV88vOqGfqOoBYz8w-45">
          <mxGeometry x="42" width="83" height="21" as="geometry">
            <mxRectangle width="83" height="21" as="alternateBounds" />
          </mxGeometry>
        </mxCell>
        <mxCell id="Us2jV88vOqGfqOoBYz8w-48" style="shape=tableRow;horizontal=0;startSize=0;swimlaneHead=0;swimlaneBody=0;fillColor=none;collapsible=0;dropTarget=0;points=[[0,0.5],[1,0.5]];portConstraint=eastwest;top=0;left=0;right=0;bottom=0;" vertex="1" parent="Us2jV88vOqGfqOoBYz8w-44">
          <mxGeometry y="46" width="125" height="21" as="geometry" />
        </mxCell>
        <mxCell id="Us2jV88vOqGfqOoBYz8w-49" value="varchar" style="shape=partialRectangle;connectable=0;fillColor=none;top=0;left=0;bottom=0;right=0;align=left;spacingLeft=2;overflow=hidden;fontSize=11;" vertex="1" parent="Us2jV88vOqGfqOoBYz8w-48">
          <mxGeometry width="42" height="21" as="geometry">
            <mxRectangle width="42" height="21" as="alternateBounds" />
          </mxGeometry>
        </mxCell>
        <mxCell id="Us2jV88vOqGfqOoBYz8w-50" value="type" style="shape=partialRectangle;connectable=0;fillColor=none;top=0;left=0;bottom=0;right=0;align=left;spacingLeft=2;overflow=hidden;fontSize=11;" vertex="1" parent="Us2jV88vOqGfqOoBYz8w-48">
          <mxGeometry x="42" width="83" height="21" as="geometry">
            <mxRectangle width="83" height="21" as="alternateBounds" />
          </mxGeometry>
        </mxCell>
        <mxCell id="Us2jV88vOqGfqOoBYz8w-51" style="shape=tableRow;horizontal=0;startSize=0;swimlaneHead=0;swimlaneBody=0;fillColor=none;collapsible=0;dropTarget=0;points=[[0,0.5],[1,0.5]];portConstraint=eastwest;top=0;left=0;right=0;bottom=0;" vertex="1" parent="Us2jV88vOqGfqOoBYz8w-44">
          <mxGeometry y="67" width="125" height="21" as="geometry" />
        </mxCell>
        <mxCell id="Us2jV88vOqGfqOoBYz8w-52" value="varchar" style="shape=partialRectangle;connectable=0;fillColor=none;top=0;left=0;bottom=0;right=0;align=left;spacingLeft=2;overflow=hidden;fontSize=11;" vertex="1" parent="Us2jV88vOqGfqOoBYz8w-51">
          <mxGeometry width="42" height="21" as="geometry">
            <mxRectangle width="42" height="21" as="alternateBounds" />
          </mxGeometry>
        </mxCell>
        <mxCell id="Us2jV88vOqGfqOoBYz8w-53" value="url" style="shape=partialRectangle;connectable=0;fillColor=none;top=0;left=0;bottom=0;right=0;align=left;spacingLeft=2;overflow=hidden;fontSize=11;" vertex="1" parent="Us2jV88vOqGfqOoBYz8w-51">
          <mxGeometry x="42" width="83" height="21" as="geometry">
            <mxRectangle width="83" height="21" as="alternateBounds" />
          </mxGeometry>
        </mxCell>
        <mxCell id="Us2jV88vOqGfqOoBYz8w-54" style="shape=tableRow;horizontal=0;startSize=0;swimlaneHead=0;swimlaneBody=0;fillColor=none;collapsible=0;dropTarget=0;points=[[0,0.5],[1,0.5]];portConstraint=eastwest;top=0;left=0;right=0;bottom=0;" vertex="1" parent="Us2jV88vOqGfqOoBYz8w-44">
          <mxGeometry y="88" width="125" height="21" as="geometry" />
        </mxCell>
        <mxCell id="Us2jV88vOqGfqOoBYz8w-55" value="int" style="shape=partialRectangle;connectable=0;fillColor=none;top=0;left=0;bottom=0;right=0;align=left;spacingLeft=2;overflow=hidden;fontSize=11;" vertex="1" parent="Us2jV88vOqGfqOoBYz8w-54">
          <mxGeometry width="42" height="21" as="geometry">
            <mxRectangle width="42" height="21" as="alternateBounds" />
          </mxGeometry>
        </mxCell>
        <mxCell id="Us2jV88vOqGfqOoBYz8w-56" value="user_id" style="shape=partialRectangle;connectable=0;fillColor=none;top=0;left=0;bottom=0;right=0;align=left;spacingLeft=2;overflow=hidden;fontSize=11;" vertex="1" parent="Us2jV88vOqGfqOoBYz8w-54">
          <mxGeometry x="42" width="83" height="21" as="geometry">
            <mxRectangle width="83" height="21" as="alternateBounds" />
          </mxGeometry>
        </mxCell>
        <mxCell id="Us2jV88vOqGfqOoBYz8w-57" value="has" style="curved=1;startArrow=ERmandOne;startSize=10;;endArrow=ERmany;endSize=10;;exitX=0;exitY=0.87;entryX=0.5;entryY=0;rounded=0;" edge="1" parent="1" source="Us2jV88vOqGfqOoBYz8w-1" target="Us2jV88vOqGfqOoBYz8w-14">
          <mxGeometry relative="1" as="geometry">
            <Array as="points">
              <mxPoint x="184" y="588" />
            </Array>
          </mxGeometry>
        </mxCell>
        <mxCell id="Us2jV88vOqGfqOoBYz8w-58" value="possesses" style="curved=1;startArrow=ERmandOne;startSize=10;;endArrow=ERmany;endSize=10;;exitX=0.5;exitY=1;entryX=0.2;entryY=-0.01;rounded=0;" edge="1" parent="1" source="Us2jV88vOqGfqOoBYz8w-1" target="Us2jV88vOqGfqOoBYz8w-37">
          <mxGeometry relative="1" as="geometry">
            <Array as="points">
              <mxPoint x="341" y="588" />
            </Array>
          </mxGeometry>
        </mxCell>
        <mxCell id="Us2jV88vOqGfqOoBYz8w-59" value="categorized_by" style="curved=1;startArrow=ERmandOne;startSize=10;;endArrow=ERmany;endSize=10;;exitX=0.19;exitY=1;entryX=0.66;entryY=-0.01;rounded=0;" edge="1" parent="1" source="Us2jV88vOqGfqOoBYz8w-30" target="Us2jV88vOqGfqOoBYz8w-37">
          <mxGeometry relative="1" as="geometry">
            <Array as="points">
              <mxPoint x="506" y="588" />
            </Array>
          </mxGeometry>
        </mxCell>
        <mxCell id="Us2jV88vOqGfqOoBYz8w-60" value="contacts" style="curved=1;startArrow=ERmandOne;startSize=10;;endArrow=ERmany;endSize=10;;exitX=1;exitY=0.68;entryX=0.5;entryY=0;rounded=0;" edge="1" parent="1" source="Us2jV88vOqGfqOoBYz8w-1" target="Us2jV88vOqGfqOoBYz8w-44">
          <mxGeometry relative="1" as="geometry">
            <Array as="points">
              <mxPoint x="663" y="588" />
            </Array>
          </mxGeometry>
        </mxCell>
      </root>
    </mxGraphModel>
  </diagram>
</mxfile>
